{
  "accessors": [
    {
      "bufferView": 2,
      "componentType": 5126,
      "count": 4,
      "max": [
        25.439624786376953,
        1.9800000190734863,
        66.0673828125
      ],
      "min": [
        -69.41608428955078,
        1.9800000190734863,
        -70.32928466796875
      ],
      "type": "VEC3"
    },
    {
      "bufferView": 2,
      "byteOffset": 48,
      "componentType": 5126,
      "count": 4,
      "max": [
        0.0,
        1.0,
        8.937470208358889e-10
      ],
      "min": [
        0.0,
        1.0,
        0.0
      ],
      "type": "VEC3"
    },
    {
      "bufferView": 1,
      "componentType": 5126,
      "count": 4,
      "max": [
        0.33382201194763184,
        0.99065101146698
      ],
      "min": [
        0.0,
        0.5104089975357056
      ],
      "type": "VEC2"
    },
    {
      "bufferView": 0,
      "componentType": 5125,
      "count": 6,
      "type": "SCALAR"
    },
    {
      "bufferView": 2,
      "byteOffset": 96,
      "componentType": 5126,
      "count": 4744,
      "max": [
        23.32441520690918,
        6.642951011657715,
        54.672157287597656
      ],
      "min": [
        -60.7726936340332,
        2.230958938598633,
        -53.06330871582031
      ],
      "type": "VEC3"
    },
    {
      "bufferView": 2,
      "byteOffset": 57024,
      "componentType": 5126,
      "count": 4744,
      "max": [
        1.0,
        1.0,
        1.0
      ],
      "min": [
        -1.0,
        -1.0,
        -1.0
      ],
      "type": "VEC3"
    },
    {
      "bufferView": 1,
      "byteOffset": 32,
      "componentType": 5126,
      "count": 4744,
      "max": [
        0.8784419894218445,
        0.9644479751586914
      ],
      "min": [
        0.004370999988168478,
        0.004370999988168478
      ],
      "type": "VEC2"
    },
    {
      "bufferView": 0,
      "byteOffset": 24,
      "componentType": 5125,
      "count": 8112,
      "type": "SCALAR"
    },
    {
      "bufferView": 2,
      "byteOffset": 113952,
      "componentType": 5126,
      "count": 2891,
      "max": [
        27.230623245239258,
        8.742136001586914,
        59.764892578125
      ],
      "min": [
        -63.90144729614258,
        2.180851936340332,
        -57.941993713378906
      ],
      "type": "VEC3"
    },
    {
      "bufferView": 2,
      "byteOffset": 148644,
      "componentType": 5126,
      "count": 2891,
      "max": [
        1.0,
        2.0341825290870474e-07,
        1.0
      ],
      "min": [
        -1.0,
        -3.1478705864174117e-07,
        -1.0
      ],
      "type": "VEC3"
    },
    {
      "bufferView": 1,
      "byteOffset": 37984,
      "componentType": 5126,
      "count": 2891,
      "max": [
        0.6800680160522461,
        0.894694983959198
      ],
      "min": [
        0.038805000483989716,
        0.06643400341272354
      ],
      "type": "VEC2"
    },
    {
      "bufferView": 0,
      "byteOffset": 32472,
      "componentType": 5125,
      "count": 3462,
      "type": "SCALAR"
    },
    {
      "bufferView": 2,
      "byteOffset": 183336,
      "componentType": 5126,
      "count": 1164,
      "max": [
        27.230623245239258,
        8.742136001586914,
        59.764892578125
      ],
      "min": [
        -63.90144729614258,
        2.180851936340332,
        -57.941993713378906
      ],
      "type": "VEC3"
    },
    {
      "bufferView": 2,
      "byteOffset": 197304,
      "componentType": 5126,
      "count": 1164,
      "max": [
        0.0,
        1.0,
        0.0
      ],
      "min": [
        0.0,
        -1.0,
        0.0
      ],
      "type": "VEC3"
    },
    {
      "bufferView": 1,
      "byteOffset": 61112,
      "componentType": 5126,
      "count": 1164,
      "max": [
        0.6800680160522461,
        0.894694983959198
      ],
      "min": [
        0.038805000483989716,
        0.06643400341272354
      ],
      "type": "VEC2"
    },
    {
      "bufferView": 0,
      "byteOffset": 46320,
      "componentType": 5125,
      "count": 3204,
      "type": "SCALAR"
    },
    {
      "bufferView": 2,
      "byteOffset": 211272,
      "componentType": 5126,
      "count": 271,
      "max": [
        -22.88687515258789,
        2.6205990314483643,
        -9.59917163848877
      ],
      "min": [
        -28.293594360351563,
        2.0450820922851563,
        -15.005890846252441
      ],
      "type": "VEC3"
    },
    {
      "bufferView": 2,
      "byteOffset": 214524,
      "componentType": 5126,
      "count": 271,
      "max": [
        1.0,
        9.155369298241567e-06,
        1.0
      ],
      "min": [
        -1.0,
        -2.2243453713599592e-05,
        -1.0
      ],
      "type": "VEC3"
    },
    {
      "bufferView": 1,
      "byteOffset": 70424,
      "componentType": 5126,
      "count": 271,
      "max": [
        0.9111620187759399,
        0.9151049852371216
      ],
      "min": [
        0.32458600401878357,
        0.41565999388694763
      ],
      "type": "VEC2"
    },
    {
      "bufferView": 0,
      "byteOffset": 59136,
      "componentType": 5125,
      "count": 405,
      "type": "SCALAR"
    },
    {
      "bufferView": 2,
      "byteOffset": 217776,
      "componentType": 5126,
      "count": 792,
      "max": [
        -8.439903259277344,
        2.6206250190734863,
        12.505928039550781
      ],
      "min": [
        -28.293594360351563,
        1.998661994934082,
        -15.027336120605469
      ],
      "type": "VEC3"
    },
    {
      "bufferView": 2,
      "byteOffset": 227280,
      "componentType": 5126,
      "count": 792,
      "max": [
        1.0,
        1.0,
        1.0
      ],
      "min": [
        -1.0,
        -1.0,
        -1.0
      ],
      "type": "VEC3"
    },
    {
      "bufferView": 1,
      "byteOffset": 72592,
      "componentType": 5126,
      "count": 792,
      "max": [
        0.7536619901657104,
        0.6654710173606873
      ],
      "min": [
        0.007643999997526407,
        0.0
      ],
      "type": "VEC2"
    },
    {
      "bufferView": 0,
      "byteOffset": 60756,
      "componentType": 5125,
      "count": 2004,
      "type": "SCALAR"
    },
    {
      "bufferView": 2,
      "byteOffset": 236784,
      "componentType": 5126,
      "count": 813,
      "max": [
        -8.439903259277344,
        2.6205990314483643,
        1.1032090187072754
      ],
      "min": [
        -20.974523544311523,
        2.0450820922851563,
        -15.027336120605469
      ],
      "type": "VEC3"
    },
    {
      "bufferView": 2,
      "byteOffset": 246540,
      "componentType": 5126,
      "count": 813,
      "max": [
        1.0,
        1.0147366992896423e-05,
        1.0
      ],
      "min": [
        -1.0,
        -2.5326566174044274e-05,
        -1.0
      ],
      "type": "VEC3"
    },
    {
      "bufferView": 1,
      "byteOffset": 78928,
      "componentType": 5126,
      "count": 813,
      "max": [
        0.9111620187759399,
        0.9151049852371216
      ],
      "min": [
        0.32458600401878357,
        0.41565999388694763
      ],
      "type": "VEC2"
    },
    {
      "bufferView": 0,
      "byteOffset": 68772,
      "componentType": 5125,
      "count": 1215,
      "type": "SCALAR"
    },
    {
      "bufferView": 2,
      "byteOffset": 256296,
      "componentType": 5126,
      "count": 4,
      "max": [
        33.990989685058594,
        1.9800000190734863,
        66.0673828125
      ],
      "min": [
        25.15933609008789,
        1.9800000190734863,
        -70.32928466796875
      ],
      "type": "VEC3"
    },
    {
      "bufferView": 2,
      "byteOffset": 256344,
      "componentType": 5126,
      "count": 4,
      "max": [
        0.0,
        1.0,
        1.7004100349993223e-09
      ],
      "min": [
        0.0,
        1.0,
        8.176378463176093e-10
      ],
      "type": "VEC3"
    },
    {
      "bufferView": 1,
      "byteOffset": 85432,
      "componentType": 5126,
      "count": 4,
      "max": [
        0.23827500641345978,
        0.99065101146698
      ],
      "min": [
        0.2071940004825592,
        0.5104089975357056
      ],
      "type": "VEC2"
    },
    {
      "bufferView": 0,
      "byteOffset": 73632,
      "componentType": 5125,
      "count": 6,
      "type": "SCALAR"
    }
  ],
  "asset": {
    "extras": {
      "author": "Alfking49 (https://sketchfab.com/alfking49)",
      "license": "CC-BY-4.0 (http://creativecommons.org/licenses/by/4.0/)",
      "source": "https://sketchfab.com/3d-models/pac-man-level-namco-nes-48b1251436b04c14951f9f614503099f",
      "title": "Pac-Man Level (Namco) (NES)"
    },
    "generator": "Sketchfab-11.53.2",
    "version": "2.0"
  },
  "bufferViews": [
    {
      "buffer": 0,
      "byteLength": 73656,
      "name": "floatBufferViews",
      "target": 34963
    },
    {
      "buffer": 0,
      "byteLength": 85464,
      "byteOffset": 73656,
      "byteStride": 8,
      "name": "floatBufferViews",
      "target": 34962
    },
    {
      "buffer": 0,
      "byteLength": 256392,
      "byteOffset": 159120,
      "byteStride": 12,
      "name": "floatBufferViews",
      "target": 34962
    }
  ],
  "buffers": [
    {
      "byteLength": 415512,
      "uri": "scene.bin"
    }
  ],
  "extensionsUsed": [
    "KHR_materials_unlit"
  ],
  "images": [
    {
      "uri": "textures/zeimport_poly_XSIPOLYCLS.board_baseColor.png"
    },
    {
      "uri": "textures/zeimport_poly83_XSIPOLYCLS.food_baseColor.png"
    },
    {
      "uri": "textures/zeimport_poly5_XSIPOLYCLS.maze_baseColor.png"
    },
    {
      "uri": "textures/zeimport_poly84_XSIPOLYCLS.main_baseColor.png"
    },
    {
      "uri": "textures/zeimport_poly_XSIPOLYCLS.ghost1_baseColor.png"
    }
  ],
  "materials": [
    {
      "doubleSided": true,
      "extensions": {
        "KHR_materials_unlit": {}
      },
      "name": "zeimport_poly_XSIPOLYCLS.board",
      "pbrMetallicRoughness": {
        "baseColorTexture": {
          "index": 0
        },
        "metallicFactor": 0.0
      }
    },
    {
      "doubleSided": true,
      "extensions": {
        "KHR_materials_unlit": {}
      },
      "name": "zeimport_poly83_XSIPOLYCLS.food",
      "pbrMetallicRoughness": {
        "baseColorTexture": {
          "index": 1
        },
        "metallicFactor": 0.0
      }
    },
    {
      "doubleSided": true,
      "extensions": {
        "KHR_materials_unlit": {}
      },
      "name": "zeimport_poly5_XSIPOLYCLS.maze",
      "pbrMetallicRoughness": {
        "baseColorTexture": {
          "index": 2
        },
        "metallicFactor": 0.0
      }
    },
    {
      "doubleSided": true,
      "extensions": {
        "KHR_materials_unlit": {}
      },
      "name": "zeimport_poly84_XSIPOLYCLS.main",
      "pbrMetallicRoughness": {
        "baseColorTexture": {
          "index": 3
        },
        "metallicFactor": 0.0
      }
    },
    {
      "doubleSided": true,
      "extensions": {
        "KHR_materials_unlit": {}
      },
      "name": "zeimport_poly_XSIPOLYCLS.ghost1",
      "pbrMetallicRoughness": {
        "baseColorTexture": {
          "index": 4
        },
        "metallicFactor": 0.0
      }
    },
    {
      "doubleSided": true,
      "extensions": {
        "KHR_materials_unlit": {}
      },
      "name": "material_0",
      "pbrMetallicRoughness": {
        "baseColorTexture": {
          "index": 4
        },
        "metallicFactor": 0.0
      }
    },
    {
      "doubleSided": true,
      "extensions": {
        "KHR_materials_unlit": {}
      },
      "name": "zeimport_poly_XSIPOLYCLS.ghost2",
      "pbrMetallicRoughness": {
        "baseColorTexture": {
          "index": 4
        },
        "metallicFactor": 0.0
      }
    },
    {
      "doubleSided": true,
      "extensions": {
        "KHR_materials_unlit": {}
      },
      "name": "board1",
      "pbrMetallicRoughness": {
        "baseColorTexture": {
          "index": 0
        },
        "metallicFactor": 0.0
      }
    }
  ],
  "meshes": [
    {
      "name": "13.2.163.0_zeimport_poly_XSIPOLYCLS.board_0",
      "primitives": [
        {
          "attributes": {
            "NORMAL": 1,
            "POSITION": 0,
            "TEXCOORD_0": 2
          },
          "indices": 3,
          "material": 0,
          "mode": 4
        }
      ]
    },
    {
      "name": "13.2.163.0_zeimport_poly83_XSIPOLYCLS.food_0",
      "primitives": [
        {
          "attributes": {
            "NORMAL": 5,
            "POSITION": 4,
            "TEXCOORD_0": 6
          },
          "indices": 7,
          "material": 1,
          "mode": 4
        }
      ]
    },
    {
      "name": "13.2.163.0_zeimport_poly5_XSIPOLYCLS.maze_0",
      "primitives": [
        {
          "attributes": {
            "NORMAL": 9,
            "POSITION": 8,
            "TEXCOORD_0": 10
          },
          "indices": 11,
          "material": 2,
          "mode": 4
        }
      ]
    },
    {
      "name": "13.2.163.0_zeimport_poly84_XSIPOLYCLS.main_0",
      "primitives": [
        {
          "attributes": {
            "NORMAL": 13,
            "POSITION": 12,
            "TEXCOORD_0": 14
          },
          "indices": 15,
          "material": 3,
          "mode": 4
        }
      ]
    },
    {
      "name": "13.2.163.0_zeimport_poly_XSIPOLYCLS.ghost1_0",
      "primitives": [
        {
          "attributes": {
            "NORMAL": 17,
            "POSITION": 16,
            "TEXCOORD_0": 18
          },
          "indices": 19,
          "material": 4,
          "mode": 4
        }
      ]
    },
    {
      "name": "13.2.163.0_zeimport_poly1_XSIPOLYCLS.ghost_0",
      "primitives": [
        {
          "attributes": {
            "NORMAL": 21,
            "POSITION": 20,
            "TEXCOORD_0": 22
          },
          "indices": 23,
          "material": 5,
          "mode": 4
        }
      ]
    },
    {
      "name": "13.2.163.0_zeimport_poly_XSIPOLYCLS.ghost2_0",
      "primitives": [
        {
          "attributes": {
            "NORMAL": 25,
            "POSITION": 24,
            "TEXCOORD_0": 26
          },
          "indices": 27,
          "material": 6,
          "mode": 4
        }
      ]
    },
    {
      "name": "13.2.163.0_board1_0",
      "primitives": [
        {
          "attributes": {
            "NORMAL": 29,
            "POSITION": 28,
            "TEXCOORD_0": 30
          },
          "indices": 31,
          "material": 7,
          "mode": 4
        }
      ]
    }
  ],
  "nodes": [
    {
      "children": [
        1
      ],
      "matrix": [
        1.0,
        0.0,
        0.0,
        0.0,
        0.0,
        2.220446049250313e-16,
        -1.0,
        0.0,
        0.0,
        1.0,
        2.220446049250313e-16,
        0.0,
        0.0,
        0.0,
        0.0,
        1.0
      ],
      "name": "Sketchfab_model"
    },
    {
      "children": [
        2
      ],
      "matrix": [
        0.009999999776482582,
        0.0,
        0.0,
        0.0,
        0.0,
        0.0,
        0.009999999776482582,
        0.0,
        0.0,
        -0.009999999776482582,
        0.0,
        0.0,
        0.0,
        0.0,
        0.0,
        1.0
      ],
      "name": "pacman.fbx"
    },
    {
      "children": [
        3,
        6,
        8
      ],
      "name": "RootNode"
    },
    {
      "children": [
        4
      ],
      "matrix": [
        -29.08647719990347,
        -5.518906457566863,
        -95.51711910171437,
        0.0,
        56.63930913109449,
        79.46723428563203,
        -21.83912397841966,
        0.0,
        77.11008775993375,
        -60.45246356562044,
        -19.98834696773717,
        0.0,
        407.6245422363281,
        590.38623046875,
        -100.54539489746094,
        1.0
      ],
      "name": "Light"
    },
    {
      "children": [
        5
      ],
      "matrix": [
        1.0,
        0.0,
        0.0,
        0.0,
        0.0,
        2.220446049250313e-16,
        1.0,
        0.0,
        0.0,
        -1.0,
        2.220446049250313e-16,
        0.0,
        0.0,
        0.0,
        0.0,
        1.0
      ],
      "name": "Object_4"
    },
    {
      "name": "Object_5"
    },
    {
      "children": [
        7
      ],
      "matrix": [
        -65.15581009765468,
        -44.527143038140764,
        -61.41704928909654,
        0.0,
        -32.40135466989878,
        89.5395708958271,
        -30.542085476036902,
        0.0,
        68.59207001076176,
        1.2755314797120858e-05,
        -72.76761921184276,
        0.0,
        735.88916015625,
        495.8309326171875,
        692.5791015625,
        1.0
      ],
      "name": "Camera"
    },
    {
      "name": "Object_7"
    },
    {
      "children": [
        9,
        10,
        11,
        12,
        13,
        14,
        15,
        16
      ],
      "matrix": [
        100.0,
        0.0,
        0.0,
        0.0,
        0.0,
        99.99999999999866,
        1.6292067073209114e-05,
        0.0,
        0.0,
        -1.6292067073209114e-05,
        99.99999999999866,
        0.0,
        0.0,
        0.0,
        0.0,
        1.0
      ],
      "name": "13.2.163.0"
    },
    {
      "mesh": 0,
      "name": "13.2.163.0_zeimport_poly_XSIPOLYCLS.board_0"
    },
    {
      "mesh": 1,
      "name": "13.2.163.0_zeimport_poly83_XSIPOLYCLS.food_0"
    },
    {
      "mesh": 2,
      "name": "13.2.163.0_zeimport_poly5_XSIPOLYCLS.maze_0"
    },
    {
      "mesh": 3,
      "name": "13.2.163.0_zeimport_poly84_XSIPOLYCLS.main_0"
    },
    {
      "mesh": 4,
      "name": "13.2.163.0_zeimport_poly_XSIPOLYCLS.ghost1_0"
    },
    {
      "mesh": 5,
      "name": "13.2.163.0_zeimport_poly1_XSIPOLYCLS.ghost_0"
    },
    {
      "mesh": 6,
      "name": "13.2.163.0_zeimport_poly_XSIPOLYCLS.ghost2_0"
    },
    {
      "mesh": 7,
      "name": "13.2.163.0_board1_0"
    }
  ],
  "samplers": [
    {
      "magFilter": 9729,
      "minFilter": 9987,
      "wrapS": 10497,
      "wrapT": 10497
    }
  ],
  "scene": 0,
  "scenes": [
    {
      "name": "Sketchfab_Scene",
      "nodes": [
        0
      ]
    }
  ],
  "textures": [
    {
      "sampler": 0,
      "source": 0
    },
    {
      "sampler": 0,
      "source": 1
    },
    {
      "sampler": 0,
      "source": 2
    },
    {
      "sampler": 0,
      "source": 3
    },
    {
      "sampler": 0,
      "source": 4
    }
  ]
}
